<svg id="a86568cf-1827-4aa2-a34d-ff4cff193419" data-name="圖層 1" xmlns="http://www.w3.org/2000/svg" xmlns:xlink="http://www.w3.org/1999/xlink" viewBox="0 0 271 49"><defs><style>.a0452919-2a94-4521-b621-fc143640d98c{fill:none;}.b76aab4e-3c61-4ce1-b2dd-03e554ce3fcc{fill:#fff;}.a4bc6169-d2f8-4e3a-863d-62e5a7223486{fill:#f9bc36;}.acba938b-688f-402f-a6a8-169f30330775{clip-path:url(#a7c0c15b-9b2f-417a-bce3-425ba52e4033);}.a766d6e1-b9cc-4895-8cbb-42e941b6b626{opacity:0.53;}.a75bc7cb-65c5-4c1e-97b9-3a061f306172{clip-path:url(#aa938249-44ea-4097-af89-d9122fb7e26f);}.a745cc0f-491f-4e45-aeca-594704568b0c{opacity:0.37;}.ef47fd3e-661f-4291-80b4-a880a0bf3529{clip-path:url(#a24b62b5-cc2a-481c-9dd4-fe03a4b0736f);}</style><clipPath id="a7c0c15b-9b2f-417a-bce3-425ba52e4033"><rect class="a0452919-2a94-4521-b621-fc143640d98c" width="111" height="49"/></clipPath><clipPath id="aa938249-44ea-4097-af89-d9122fb7e26f"><polygon class="b76aab4e-3c61-4ce1-b2dd-03e554ce3fcc" points="-22.67 19.73 59.87 65.79 14.69 -18.11 -22.67 19.73"/></clipPath><clipPath id="a24b62b5-cc2a-481c-9dd4-fe03a4b0736f"><polygon class="b76aab4e-3c61-4ce1-b2dd-03e554ce3fcc" points="-15.8 28.37 11.03 67.02 110.42 -18.7 -15.8 28.37"/></clipPath></defs><rect class="a4bc6169-d2f8-4e3a-863d-62e5a7223486" width="271" height="49" rx="7"/><g class="acba938b-688f-402f-a6a8-169f30330775"><g class="a766d6e1-b9cc-4895-8cbb-42e941b6b626"><polygon class="b76aab4e-3c61-4ce1-b2dd-03e554ce3fcc" points="-22.67 19.73 59.87 65.79 14.69 -18.11 -22.67 19.73"/><g class="a75bc7cb-65c5-4c1e-97b9-3a061f306172"><rect class="b76aab4e-3c61-4ce1-b2dd-03e554ce3fcc" width="271" height="49" rx="7"/></g></g><g class="a745cc0f-491f-4e45-aeca-594704568b0c"><polygon class="b76aab4e-3c61-4ce1-b2dd-03e554ce3fcc" points="-15.8 28.37 11.03 67.02 110.42 -18.7 -15.8 28.37"/><g class="ef47fd3e-661f-4291-80b4-a880a0bf3529"><path class="b76aab4e-3c61-4ce1-b2dd-03e554ce3fcc" d="M7.33.17h257a7,7,0,0,1,7,7h0v35a7,7,0,0,1-7,7H7.33a7,7,0,0,1-7-7v-35A7,7,0,0,1,7.33.17Z"/></g></g></g></svg>